<?xml version="1.0" encoding="UTF-8" standalone="no"?>
<!DOCTYPE svg PUBLIC "-//W3C//DTD SVG 1.1//EN" "http://www.w3.org/Graphics/SVG/1.1/DTD/svg11.dtd">
<svg width="100%" height="100%" viewBox="0 0 636 224" version="1.1" xmlns="http://www.w3.org/2000/svg" xmlns:xlink="http://www.w3.org/1999/xlink" xml:space="preserve" xmlns:serif="http://www.serif.com/" style="fill-rule:evenodd;clip-rule:evenodd;stroke-linejoin:round;stroke-miterlimit:2;">
    <g transform="matrix(1.33333,0,0,1.33333,-2996,-1893.73)">
        <g transform="matrix(2,0,0,2,0,0)">
            <g transform="matrix(1,0,0,1,0,134.101)">
                <g opacity="0.75">
                    <g transform="matrix(1,0,0,1,0,155.766)">
                        <rect x="1209.66" y="420.284" width="23" height="83.666"/>
                    </g>
                </g>
            </g>
        </g>
        <g transform="matrix(2,0,0,2,0,0)">
            <g transform="matrix(1,0,0,1,1275.96,710.15)">
                <path d="M0,83.666L-23.091,83.666L-43.301,44.622L-54.79,22.199L-66.16,0L-43.301,0L-21.65,41.833L0,83.666Z"/>
            </g>
        </g>
        <g transform="matrix(2,0,0,2,0,0)">
            <g transform="matrix(0.5,0,0,0.5,0,0)">
                <path d="M2379.32,1420.31L2422.61,1503.97L2465.91,1587.63L2419.73,1587.63L2379.31,1509.55L2356.46,1464.94L2333.6,1509.55L2293.18,1587.63L2247,1587.63L2333.6,1420.31L2333.59,1420.3L2379.32,1420.3L2379.32,1420.31Z" style="fill-rule:nonzero;"/>
            </g>
        </g>
        <g transform="matrix(2,0,0,2,0,0)">
            <g transform="matrix(1,0,0,1,0,134.101)">
                <g opacity="0.75">
                    <g transform="matrix(1,0,0,1,0,155.766)">
                        <rect x="1252.66" y="420.284" width="23" height="83.666"/>
                    </g>
                </g>
            </g>
        </g>
        <g transform="matrix(2,0,0,2,0,0)">
            <g transform="matrix(1,0,0,1,1318.96,710.15)">
                <path d="M0,83.666L-23.091,83.666L-43.301,44.622L-54.79,22.199L-66.16,0L-43.301,0L-21.65,41.833L0,83.666Z" style="fill-rule:nonzero;"/>
            </g>
        </g>
        <g transform="matrix(2,0,0,2,0,0)">
            <g transform="matrix(1,0,0,1,0,134.101)">
                <g opacity="0.75">
                    <g transform="matrix(1,0,0,1,0,155.766)">
                        <rect x="1295.66" y="420.284" width="23" height="83.666"/>
                    </g>
                </g>
            </g>
        </g>
        <g transform="matrix(2,0,0,2,0,0)">
            <g transform="matrix(1,0,0,1,1361.96,710.15)">
                <path d="M0,83.666L-23.091,83.666L-43.301,44.622L-54.79,22.199L-66.16,0L-43.301,0L-21.65,41.833L0,83.666Z" style="fill-rule:nonzero;"/>
            </g>
        </g>
    </g>
</svg>
